<svg xmlns="http://www.w3.org/2000/svg" width="149" height="59.675" viewBox="0 0 149 59.675"><g transform="translate(-1492 -317.786)"><g transform="translate(388 -7.582)"><path d="M213-296.59l.057,13.563,12,7.535c6.6,4.144,12.285,7.535,12.687,7.535.344,0,6.028-3.391,12.63-7.535l12-7.535v-27.126l-12.285,8.477-12.343,8.524-9.357-6.5c-5.167-3.532-10.735-7.394-12.4-8.477L213-310.2Zm14.811,3.815,6.43,4.38v11.726l-3.157-2.025-3.157-1.978v-5.322l-4.133-2.826-4.133-2.826-.115-3.344c-.057-3.014.057-3.3.861-2.779C220.922-297.438,224.252-295.224,227.811-292.775Zm28.245-2.308v3.3l-4.306,2.92-4.306,2.92v5.416l-3.157,1.931-3.157,1.978V-288.4l7.348-4.945c4.019-2.731,7.348-4.992,7.463-4.992A24.3,24.3,0,0,1,256.056-295.083Z" transform="translate(891 653)"/><g transform="translate(1125.64 325.368)"><path d="M250-323.435v12.669l1.32,1.128c1.726,1.585,2.335,1.527,3.655-.117,1.066-1.292,1.117-1.82,1.117-13.8V-336H250Z" transform="translate(-250 336)"/><rect width="6.061" height="9" transform="translate(0 14.284)"/><ellipse cx="3.031" cy="4.5" rx="3.031" ry="4.5" transform="translate(0 19.284)"/></g></g><g transform="translate(480.997 -118.35)"><path d="M182-187.364v5.636h3.607c2.705,0,3.663-.225,3.945-.845.225-.676-.282-.845-2.761-.845h-3.1v-4.79c0-3.889-.169-4.79-.845-4.79S182-191.986,182-187.364Z" transform="translate(893.469 654.962)"/><path d="M211.01-191.742c-1.127.9-1.578,1.972-1.8,3.889-.282,2.367-.169,2.818,1.409,4.4a6.235,6.235,0,0,0,8.4.338c1.353-1.183,1.578-1.8,1.578-4.283s-.225-3.1-1.578-4.283A6.515,6.515,0,0,0,211.01-191.742Zm6.988,1.86a5.274,5.274,0,0,1,1.183,2.536c0,1.691-2.423,4-4.227,4s-4.227-2.311-4.227-4a4.574,4.574,0,0,1,4.227-4A3.432,3.432,0,0,1,218-189.882Z" transform="translate(882.512 655)"/><path d="M246-187.364c0,4.621.169,5.636.845,5.636s.845-.845.845-4v-4l3.156,4c4.283,5.523,4.734,5.354,4.734-1.634,0-4.565-.169-5.636-.845-5.636-.62,0-.845.958-.958,4.058l-.169,4.058-2.987-4.058C248.93-191.2,247.24-193,246.789-193,246.169-193,246-191.817,246-187.364Z" transform="translate(867.522 654.962)"/><path d="M280-187.364v5.636h4.227c3.381,0,4.227-.169,4.227-.845s-.733-.845-3.381-.845h-3.381v-1.691c0-1.634.056-1.691,2.818-1.691,1.578,0,2.818-.282,2.818-.564,0-.338-1.24-.564-2.818-.564-2.761,0-2.818-.056-2.818-1.691,0-1.691.056-1.691,3.1-1.691,2.367,0,3.1-.169,3.1-.845S287.1-193,283.945-193H280Z" transform="translate(853.69 654.962)"/><path d="M308-192.718a26.622,26.622,0,0,0,1.972,3.269c1.465,2.2,1.972,3.494,1.972,5.3s.225,2.423.845,2.423.845-.62.845-2.029c0-1.465.676-3.156,2.254-5.636,1.86-2.987,2.085-3.607,1.3-3.607-.564,0-1.691,1.127-2.649,2.592l-1.634,2.592-1.465-2.592c-.845-1.522-1.86-2.592-2.423-2.592S308-192.887,308-192.718Z" transform="translate(842.388 654.962)"/></g></g></svg>