<svg xmlns="http://www.w3.org/2000/svg" width="150" height="183.829" viewBox="0 0 150 183.829"><g transform="translate(-1377 -261.368)"><g transform="translate(290.987 -58)"><path d="M213-269.422l.133,40.637,27.711,22.576c15.248,12.417,28.374,22.576,29.3,22.576.8,0,13.922-10.159,29.169-22.576l27.711-22.576v-81.274l-28.374,25.4-28.507,25.539-21.612-19.472c-11.933-10.583-24.794-22.153-28.639-25.4L213-310.2Zm34.208,11.429,14.85,13.122v35.134l-7.292-6.067-7.292-5.926v-15.945l-9.546-8.466-9.546-8.466-.265-10.018c-.133-9.031.133-9.877,1.989-8.325C231.3-271.962,238.987-265.33,247.208-257.992Zm65.233-6.914v9.877l-9.944,8.748-9.944,8.748v16.227l-7.292,5.785-7.292,5.926V-244.87l16.971-14.816c9.281-8.184,16.971-14.957,17.236-14.957A94.289,94.289,0,0,1,312.441-264.906Z" transform="translate(891 653)"/><g transform="translate(1155.013 319.368)"><path d="M250-314.6v21.578l2.6,1.922c3.4,2.7,4.6,2.6,7.2-.2,2.1-2.2,2.2-3.1,2.2-23.5V-336H250Z" transform="translate(-250 336)"/><rect width="11.97" height="9" transform="translate(0 33.632)"/><ellipse cx="5.985" cy="4.5" rx="5.985" ry="4.5" transform="translate(0 38.632)"/></g></g><g transform="translate(301.531 -37)"><path d="M182-183v10h6.4c4.8,0,6.5-.4,7-1.5.4-1.2-.5-1.5-4.9-1.5H185v-8.5c0-6.9-.3-8.5-1.5-8.5S182-191.2,182-183Z" transform="translate(893.469 655)"/><path d="M212.5-190.7c-2,1.6-2.8,3.5-3.2,6.9-.5,4.2-.3,5,2.5,7.8a11.064,11.064,0,0,0,14.9.6c2.4-2.1,2.8-3.2,2.8-7.6s-.4-5.5-2.8-7.6C222.9-193.9,216.2-193.9,212.5-190.7Zm12.4,3.3a9.357,9.357,0,0,1,2.1,4.5c0,3-4.3,7.1-7.5,7.1s-7.5-4.1-7.5-7.1c0-3.4,3.9-7.1,7.5-7.1A6.089,6.089,0,0,1,224.9-187.4Z" transform="translate(895.002 655)"/><path d="M246-183c0,8.2.3,10,1.5,10s1.5-1.5,1.5-7.1v-7.1l5.6,7.1c7.6,9.8,8.4,9.5,8.4-2.9,0-8.1-.3-10-1.5-10-1.1,0-1.5,1.7-1.7,7.2l-.3,7.2-5.3-7.2c-3-4-6-7.2-6.8-7.2C246.3-193,246-190.9,246-183Z" transform="translate(896.992 655)"/><path d="M280-183v10h7.5c6,0,7.5-.3,7.5-1.5s-1.3-1.5-6-1.5h-6v-3c0-2.9.1-3,5-3,2.8,0,5-.5,5-1,0-.6-2.2-1-5-1-4.9,0-5-.1-5-3,0-3,.1-3,5.5-3,4.2,0,5.5-.3,5.5-1.5s-1.4-1.5-7-1.5h-7Z" transform="translate(898.779 655)"/><path d="M308-192.5a47.233,47.233,0,0,0,3.5,5.8c2.6,3.9,3.5,6.2,3.5,9.4s.4,4.3,1.5,4.3,1.5-1.1,1.5-3.6c0-2.6,1.2-5.6,4-10,3.3-5.3,3.7-6.4,2.3-6.4-1,0-3,2-4.7,4.6l-2.9,4.6-2.6-4.6c-1.5-2.7-3.3-4.6-4.3-4.6S308-192.8,308-192.5Z" transform="translate(900.408 655)"/></g></g></svg>