<svg xmlns="http://www.w3.org/2000/svg" width="114.026" height="150" viewBox="0 0 114.026 150"><g transform="translate(-1104 -319.368)"><path d="M213-269.422l.133,40.637,27.711,22.576c15.248,12.417,28.374,22.576,29.3,22.576.8,0,13.922-10.159,29.169-22.576l27.711-22.576v-81.274l-28.374,25.4-28.507,25.539-21.612-19.472c-11.933-10.583-24.794-22.153-28.639-25.4L213-310.2Zm34.208,11.429,14.85,13.122v35.134l-7.292-6.067-7.292-5.926v-15.945l-9.546-8.466-9.546-8.466-.265-10.018c-.133-9.031.133-9.877,1.989-8.325C231.3-271.962,238.987-265.33,247.208-257.992Zm65.233-6.914v9.877l-9.944,8.748-9.944,8.748v16.227l-7.292,5.785-7.292,5.926V-244.87l16.971-14.816c9.281-8.184,16.971-14.957,17.236-14.957A94.289,94.289,0,0,1,312.441-264.906Z" transform="translate(891 653)"/><g transform="translate(1155.013 319.368)"><path d="M250-314.6v21.578l2.6,1.922c3.4,2.7,4.6,2.6,7.2-.2,2.1-2.2,2.2-3.1,2.2-23.5V-336H250Z" transform="translate(-250 336)"/><rect width="11.97" height="9" transform="translate(0 33.632)"/><ellipse cx="5.985" cy="4.5" rx="5.985" ry="4.5" transform="translate(0 38.632)"/></g></g></svg>